<svg id="Ebene_1" fill="white" data-name="Ebene 1" xmlns="http://www.w3.org/2000/svg" viewBox="0 0 500 500"><title>03 Ca Phe Phin</title><path d="M352.64648,293.55518H332.80762l1.04-21.8252a6.896,6.896,0,0,0-6.89258-7.23047H142.10547a6.89456,6.89456,0,0,0-6.89941,7.23145l3.7334,78.26172a47.88333,47.88333,0,0,0,28.52246,41.70508l6.46387,2.87109H131.03516a6.90479,6.90479,0,1,0,0,13.80957H339.209a6.90479,6.90479,0,0,0,0-13.80957H295.12891l6.46191-2.87109A47.8634,47.8634,0,0,0,328.502,360.28662l.29883-1.11035h23.8457a32.81055,32.81055,0,1,0,0-65.62109ZM316.3291,349.33545a34.291,34.291,0,0,1-34.29395,32.69922H187.02539a34.30183,34.30183,0,0,1-34.30078-32.69922l-3.38574-71.03418h170.375Zm36.31738-3.96582H330.33984l1.81055-38.02637h1.43066c.08984,0,.17969.00391.27051.00977l.10645.00488h18.68848a19.00586,19.00586,0,1,1,0,38.01172Z"/><path d="M349.0498,233.57275H312.83325c1.95532-9.498,3.6925-20.62384,5.25073-33.52539.916-7.58313,1.683-15.18329,2.32458-22.45349h14.25085a7.02061,7.02061,0,0,0,7-7V156.83679a7.02057,7.02057,0,0,0-7-7H322.42749c.33081-5.68262.56445-10.52924.72144-14.16443H325.832a7.50007,7.50007,0,0,0,7.41113-8.65137c-1.90137-12.24316-13.00391-35.39941-41.41309-35.39941H179.25977c-28.40918,0-39.51172,23.15625-41.41309,35.39941a7.50007,7.50007,0,0,0,7.41113,8.65137h2.68408c.157,3.63519.39063,8.48181.72144,14.16443H136.49121a7.02049,7.02049,0,0,0-7,7v13.75708a7.02053,7.02053,0,0,0,7,7h14.191c.6416,7.2702,1.40857,14.87036,2.32458,22.45349,1.558,12.90155,3.29517,24.0274,5.25024,33.52539H122.04a7.5,7.5,0,0,0,0,15h39.87659c5.86145,20.0119,13.43018,29.05078,23.517,29.05078H285.65625c10.08679,0,17.65552-9.03888,23.51721-29.05078H349.0498a7.5,7.5,0,0,0,0-15Zm-63.39355,29.05078H185.47559c-.29382-.1106-3.63794-1.646-7.79321-14.05078H293.4115C289.10474,261.44562,285.68091,262.61127,285.65625,262.62354Zm17.8418-66.95508a382.30115,382.30115,0,0,1-6.0481,37.9043H173.64136a381.636,381.636,0,0,1-6.03882-37.81934c-2.81543-24.16406-4.124-48.17578-4.64746-60.08105H308.13574C307.61426,147.55908,306.30859,171.51807,303.498,195.66846Zm-147.8418-74.99609c3.31934-6.41895,10.10449-14.05078,23.60352-14.05078H291.83008c13.52441,0,20.30273,7.60449,23.61914,14.05078Z"/></svg>
