<svg id="Ebene_1" data-name="Ebene 1" xmlns="http://www.w3.org/2000/svg" viewBox="0 0 500 500"><title>01 Espresso Bialetti</title><path d="M383.53922,112.883a6.52223,6.52223,0,0,0-4.996-2.321h-51.032l-69.789-27.918,7.332-29.324a6.53161,6.53161,0,0,0-6.339-8.121h-43.575a6.53666,6.53666,0,0,0-6.343,8.121l7.332,29.324-69.789,27.918h-24.887a6.53581,6.53581,0,0,0-4.805,10.965l30.813,33.438,19.84,115.746a6.53884,6.53884,0,0,0,6.445,5.433h2.176v13.071h-2.176a6.54164,6.54164,0,0,0-6.445,5.433l-26.145,152.512a6.53847,6.53847,0,0,0,6.445,7.641h178.653a6.53892,6.53892,0,0,0,6.554-6.536,6.43431,6.43431,0,0,0-.195-1.589l-26.059-152.028a6.535,6.535,0,0,0-6.445-5.429h-2.18V276.144h2.18a6.54194,6.54194,0,0,0,6.445-5.433l25.211-147.078h39.028l-23.906,139.437h-7.559a6.537,6.537,0,1,0,0,13.074h13.07a6.543,6.543,0,0,0,6.446-5.433l26.144-152.508a6.54494,6.54494,0,0,0-1.449-5.32Zm-133.195-54.61-5.45,21.785h-15.937l-5.446-21.785Zm-25.231,34.86h23.625l43.574,17.429h-110.773Zm-3.074,169.937-7.969-139.437h45.711l-7.965,139.437Zm-62.024-112.219a6.53741,6.53741,0,0,0-1.632-3.324l-22.02-23.894h64.613l7.969,139.437h-29.691Zm19.239,151.438h29.691l-3.215,56.297a6.53636,6.53636,0,0,0,6.153,6.898c.125.004.25.008.378.008a6.53847,6.53847,0,0,0,6.52-6.16l3.258-57.043h29.777l7.969,139.437h-45.711l3.215-56.293a6.53615,6.53615,0,0,0-13.051-.746l-3.262,57.039h-45.625Zm139.246,139.437h-45.625l-7.969-139.437h29.691Zm-33.641-152.511h-95.863V276.144h95.863Zm9.738-26.145h-29.687l7.965-139.437h45.629Zm0,0"/></svg>