<svg id="Ebene_1" fill="white" data-name="Ebene 1" xmlns="http://www.w3.org/2000/svg" viewBox="0 0 500 500"><title>02 French Press</title><path d="M308.02747,386.531H185.14453a6.822,6.822,0,0,0-6.824,6.828v27.305a6.81952,6.81952,0,0,0,6.824,6.828H308.02747a6.81889,6.81889,0,0,0,6.824-6.828V393.359A6.82143,6.82143,0,0,0,308.02747,386.531Z"/><path d="M362.6405,188.558h-20.48v-43.73c0-6.117-6.684-10.453-6.82794-10.883-23.37476-19.86536-49.67682-32.41565-81.918-33.96729V84.965a20.481,20.481,0,1,0-13.656,0v15.0127c-32.24188,1.55164-58.54327,14.10193-81.918,33.96729.054.164-3.887,2.555-5.805,6.828h-41.984a6.81886,6.81886,0,0,0-6.825,6.824,6.73047,6.73047,0,0,0,2.539,5.196l45.246,46.254V447.972a6.82333,6.82333,0,0,0,6.829,6.829h177.492a6.82306,6.82306,0,0,0,6.82794-6.829V359.226h20.48a34.12653,34.12653,0,0,0,34.133-34.132V222.691A34.12735,34.12735,0,0,0,362.6405,188.558Zm-211.629-9.03906-24.546-25.093h24.546Zm170.477-38.746h-68.074V113.62445C275.241,114.6521,299.923,120.96729,321.48846,140.773Zm-74.902-81.922a6.82852,6.82852,0,1,1-6.828,6.828A6.82286,6.82286,0,0,1,246.58649,58.851Zm-6.828,54.77319V140.773h-68.114C193.09119,120.96594,217.90442,114.65118,239.75848,113.62421Zm88.75,327.51978h-163.844V154.426h75.094V304.613h-54.614a6.826,6.826,0,0,0,0,13.652H308.02747a6.826,6.826,0,0,0,0-13.652h-54.613V154.426h75.094Zm54.613-116.05a20.48126,20.48126,0,0,1-20.481,20.48h-20.48V202.211h20.48a20.48124,20.48124,0,0,1,20.481,20.48Z"/></svg>
