<?xml version="1.0" encoding="utf-8"?>
<!-- Generator: Adobe Illustrator 22.0.1, SVG Export Plug-In . SVG Version: 6.00 Build 0)  -->
<svg version="1.1" id="Ebene_1" xmlns="http://www.w3.org/2000/svg" xmlns:xlink="http://www.w3.org/1999/xlink" x="0px" y="0px"
	 viewBox="0 0 500 500" style="enable-background:new 0 0 500 500;" xml:space="preserve">
<style type="text/css">
	.st0{fill:white;}
</style>
<path class="st0" d="M363.1,399.2v-46.8V183.7v-46.8c5.6,0,9.4-3.7,9.4-9.4c0-5.6-3.7-9.4-9.4-9.4H128.9c-5.6,0-9.4,3.7-9.4,9.4
	c0,5.6,3.7,9.4,9.4,9.4v262.3c-5.6,0-9.4,3.7-9.4,9.4c0,5.6,3.7,9.4,9.4,9.4h234.2c5.6,0,9.4-3.7,9.4-9.4
	C372.5,402.9,368.7,399.2,363.1,399.2z M147.6,136.8h196.8v37.5H147.6V136.8z M147.6,193h196.8V343H147.6V193z M147.6,399.2v-37.5
	h196.8v37.5H147.6z"/>
<g>
	<path class="st0" d="M206.2,290.1v-26.2l-8.6,17.1h-5.9l-8.7-17.1v26.2h-8.8v-45h8.7l11.8,24.3l11.7-24.3h8.7v45H206.2z"/>
	<path class="st0" d="M225.5,290.1v-45h8.8v45H225.5z"/>
	<path class="st0" d="M244.8,290.1v-45h8.8v37.2H274v7.8H244.8z"/>
	<path class="st0" d="M307.3,290.1l-11.6-20.5l-5.8,7v13.5h-8.8v-45h8.8v19.6l15.9-19.6h10.7L301.5,263l16,27.1H307.3z"/>
</g>
</svg>
