<svg id="Ebene_1" data-name="Ebene 1" xmlns="http://www.w3.org/2000/svg" viewBox="0 0 500 500"><title>04 viet. Filter</title><path d="M417.666,323.5H357.958c3.39355-15.34741,6.39966-33.77673,8.97461-55.09961,1.36768-11.32306,2.51611-22.67548,3.47852-33.54529H393.99a12.48258,12.48258,0,0,0,12.48267-12.4826V205.29639A12.48262,12.48262,0,0,0,393.99,192.81378H373.47778c.62988-10.79352,1.02686-19.58923,1.25635-25.31378H382.5a7.50007,7.50007,0,0,0,7.41113-8.65137A69.058,69.058,0,0,0,379.751,133.85645C372.084,122.28906,357.40137,108.5,331,108.5H160.5c-26.40137,0-41.084,13.78906-48.751,25.35645a69.058,69.058,0,0,0-10.16016,24.99219A7.50007,7.50007,0,0,0,109,167.5h7.76587c.22949,5.72455.62646,14.52026,1.25635,25.31378H97.60205a12.48262,12.48262,0,0,0-12.48267,12.48261V222.3725a12.48258,12.48258,0,0,0,12.48267,12.4826h23.48682c.96228,10.86981,2.11084,22.22223,3.47852,33.54529,2.575,21.32343,5.58154,39.75244,8.97534,55.09961H73.833a7.5,7.5,0,0,0,0,15h63.42578c.48743,1.74982.979,3.46362,1.47949,5.10059,8.00293,26.17676,18.18066,38.90137,31.11328,38.90137H321.64941c12.93262,0,23.10938-12.72461,31.11328-38.90137.50049-1.637.99219-3.35077,1.47949-5.10059H417.666a7.5,7.5,0,1,0,0-15ZM124.251,142.14355C132.45215,129.77246,144.64746,123.5,160.5,123.5H331c26.3877,0,37.34277,17.86621,41.60742,29H118.94824A54.02227,54.02227,0,0,1,124.251,142.14355ZM139.46875,266.6875c-4.9541-40.99023-7.01172-82.44629-7.69141-99.1875H359.72266c-.67773,16.72363-2.73145,58.11816-7.68164,99.10156C349.09668,290.982,345.853,309.472,342.6123,323.5H148.88818C145.65088,309.4884,142.41089,291.02576,139.46875,266.6875ZM321.64941,367.502H169.85156c-1.21118,0-8.689-1.20746-17.02808-29.002H338.677C330.33862,366.29419,322.86084,367.502,321.64941,367.502Z"/></svg>