<svg xmlns="http://www.w3.org/2000/svg" viewBox="0 0 314.39999 462.49332" height="462.493" width="314.4"><g fill="#fff"><path d="M246.996 458.844l.825-.874v-29.557l-.825-.873v-3.034h18.959v8.637h-5.683v-4.164h-3.875v11.258h2.944v-1.852h4.031v8.38h-4.03v-1.852h-2.945v12.492h3.875v-5.5h5.476v9.971h-18.752v-3.032m-37.56 0l.825-.874v-29.557l-.825-.873v-3.034h18.96v8.637h-5.684v-4.164h-3.875v11.258h2.947v-1.852h4.028v8.38h-4.028v-1.852h-2.947v12.492h3.875v-5.5h5.476v9.971h-18.752v-3.032m-28.003-.874l.827.874v3.032h-10.23v-3.032l.826-.874v-29.557l-.825-.873v-3.034h18.96v8.637h-5.684v-4.164h-3.874v11.258h2.946v-1.852h4.029v8.38h-4.03v-1.852h-2.945v13.057m-37.405 0l.827.874v3.032h-10.23v-3.032l.827-.874v-29.557l-.827-.873v-3.034h18.96v8.637h-5.682v-4.164h-3.875v11.258h2.945v-1.852h4.028v8.38h-4.028v-1.852h-2.945v13.057m-40.558-2.313c0 1.284.776 2.056 1.809 2.056 1.034 0 1.808-.772 1.808-2.056v-24.93c0-1.286-.774-2.057-1.808-2.057-1.033 0-1.808.771-1.808 2.057zm12.038-1.285c-.619 5.757-5.218 8.121-10.23 8.121-5.01 0-9.608-2.364-10.227-8.121-.31-3.29-.518-7.35-.518-11.207 0-3.854.208-7.864.518-11.153.62-5.757 5.217-8.123 10.228-8.123s9.61 2.366 10.229 8.123c.31 3.29.517 7.299.517 11.153 0 3.856-.207 7.917-.517 11.207m-44.328-28.89l.517-.976h4.392v13.006h-6.717v-5.655c0-1.901-.62-2.621-2.325-2.621-1.55 0-2.222.72-2.222 2.467v22.978c0 1.079.57 2.26 2.222 2.26 3.048 0 3.462-.565 3.564-6.065h5.374c.155 2.212 0 4.987-.206 6.632-.518 3.752-4.65 4.985-8.68 4.985-4.494 0-9.92-.77-10.746-8.378-.361-3.239-.465-7.196-.465-11.258 0-4.266.052-8.84.827-12.952.878-4.678 5.011-6.016 9.402-6.016 1.188 0 3.513.257 5.063 1.593m174.007-81.395c0 7.082 4.272 11.334 9.969 11.334 5.697 0 9.97-4.252 9.97-11.334V206.632c0-7.085-4.273-11.336-9.97-11.336-5.697 0-9.97 4.25-9.97 11.336zM311.555 337c-3.42 31.741-28.77 44.777-56.399 44.777-27.628 0-52.98-13.036-56.399-44.777-1.706-18.137-2.848-40.525-2.848-61.784 0-21.253 1.142-43.361 2.848-61.499 3.419-31.744 28.771-44.778 56.399-44.778 27.63 0 52.979 13.034 56.399 44.778 1.708 18.138 2.846 40.246 2.846 61.499 0 21.259-1.138 43.647-2.846 61.784M88.87 378.376H38.453L4.557 193.88 0 189.061V172.34h57.822v16.722l-4.557 4.819 15.38 111.096 2.28 22.67 2.564-22.67L89.724 193.88l-4.558-4.819V172.34h41.016v16.722l-4.556 4.819-32.757 184.496m62.991 24.679h10.89V147.66h-10.89v255.395m56.659-316.632s27.474-29.224 45.192-32.098c17.72-2.872 9.369 38.81-9.718 58.784-19.086 19.974-50.772 37.607-66.47 29.452-15.696-8.153 30.996-56.138 30.996-56.138"/><path d="M183.477 68.33s20.639-21.614 42.564-25.55c21.388-3.84 34.464 3.028 6.124 15.564-27.728 12.265-38.882 29.097-38.882 29.097s-13.452 19.243-18.848 40.215c-5.395 20.972-15.315-2.536-13.399-13.192 5.404-30.064 22.441-46.133 22.441-46.133M39.007 52.353C30.468 25.484 18.949.003 18.949.003 95.566 1.687 138 40.737 148.477 78.492c8.443 30.508-1.577 47.803-1.577 47.803-21.53-40.252-57.492-65.163-57.492-65.163 24.831 25.321 49.683 71.279 49.683 71.279-60.15 6.194-85.65-34.646-100.084-80.058"/></g></svg>